<?xml version="1.0" encoding="UTF-8"?>
<svg xmlns="http://www.w3.org/2000/svg" viewBox="-5 -3.5 22 22" width="1024" height="1024">
  <path d="M6,0C2.69,0,0,2.69,0,6h1.5C1.5,3.52,3.52,1.5,6,1.5s4.5,2.02,4.5,4.5c0,1.33-.5,1.9-1.07,2.56-.55.64-1.18,1.37-1.18,2.69,0,1.83-1.96,2.25-2.25,2.25-1.24,0-2.25-1.01-2.25-2.25h-1.5c0,2.07,1.68,3.75,3.75,3.75,1.27,0,3.75-1.13,3.75-3.75,0-.77.33-1.14.82-1.71.64-.73,1.43-1.65,1.43-3.54,0-3.31-2.69-6-6-6"/>
  <path d="M8.12,8.12c.57-.57.88-1.32.88-2.12s-.32-1.55-.88-2.12c-.56-.57-1.32-.88-2.12-.88s-1.55.32-2.12.88c-.57.57-.88,1.32-.88,2.12h1.5c0-.4.16-.78.44-1.06.56-.57,1.55-.57,2.12,0,.59.58.59,1.54,0,2.12l1.06,1.06ZM8.12,8.12"/>
</svg>
